#tb 0: 1/25
#media_type 0: video
#codec_id 0: rawvideo
#dimensions 0: 176x288
#sar 0: 0/1
0,          0,          0,        1,   152064, 0x962d1371
0,          1,          1,        1,   152064, 0xe7db1d51
0,          2,          2,        1,   152064, 0x3bb0c409
0,          3,          3,        1,   152064, 0xcc213557
0,          4,          4,        1,   152064, 0x913e1048
